<svg width="16" height="16" viewBox="0 0 16 16" fill="none" xmlns="http://www.w3.org/2000/svg">
<path d="M6.4524 9.82977C6.23715 9.63527 5.84615 9.63777 5.56415 9.83127C5.4964 9.87777 5.39515 9.87702 5.3429 9.82927C5.29115 9.78252 5.3064 9.70502 5.37415 9.65877C5.4424 9.61177 5.53915 9.61177 5.5934 9.66102C5.7209 9.57202 5.8474 9.48252 5.97365 9.39252C5.79565 9.23027 5.5084 9.20177 5.25715 9.29602C5.2214 9.26327 5.18565 9.23102 5.14965 9.19777C5.03565 9.27702 4.92115 9.35552 4.8064 9.43352C4.84415 9.46777 4.8824 9.50252 4.9209 9.53677C4.78565 9.71552 4.7864 9.93302 4.95265 10.0835C5.0454 10.1678 5.1699 10.2175 5.3084 10.232C5.4934 10.252 5.69865 10.208 5.85865 10.0978C5.92665 10.0515 6.02365 10.0515 6.07565 10.0988C6.1279 10.1463 6.1169 10.224 6.0489 10.2708C5.98115 10.3175 5.87965 10.3165 5.8274 10.2698C5.69915 10.356 5.57015 10.4418 5.44015 10.5265C5.60515 10.676 5.88565 10.714 6.1314 10.6358C6.1759 10.676 6.21965 10.7168 6.2644 10.7568C6.37965 10.679 6.4939 10.601 6.60765 10.5218C6.56444 10.4836 6.52177 10.4449 6.47965 10.4055C6.63015 10.22 6.62365 9.98627 6.4524 9.82977ZM10.7806 5.44103C10.9434 5.44103 11.1136 5.36377 11.2344 5.21802C11.2859 5.15627 11.3691 5.14452 11.4211 5.19177C11.4736 5.23902 11.4761 5.32902 11.4249 5.39077C11.3734 5.45278 11.2859 5.46427 11.2339 5.41727C11.1364 5.53252 11.0381 5.64677 10.9394 5.76027C11.1041 5.91002 11.3519 5.91727 11.5511 5.79677L11.6844 5.91753C11.7719 5.81428 11.8581 5.71077 11.9436 5.60627L11.8159 5.49053C11.9161 5.26003 11.8741 4.99427 11.7034 4.83852C11.4876 4.64353 11.1526 4.69602 10.9401 4.95102C10.8886 5.01302 10.8011 5.02452 10.7491 4.97752C10.6969 4.93002 10.6989 4.84002 10.7496 4.77827C10.8019 4.71677 10.8846 4.70427 10.9386 4.75302C11.0349 4.63652 11.1301 4.51852 11.2239 4.40027C11.0454 4.23827 10.7951 4.24127 10.5936 4.38052L10.4854 4.28252C10.4001 4.38702 10.3134 4.49078 10.2261 4.59378C10.2644 4.62828 10.3026 4.66327 10.3406 4.69727C10.2519 4.91852 10.2849 5.16652 10.4516 5.31702C10.5446 5.40177 10.6589 5.44302 10.7806 5.44103Z" fill="#FB8500"/>
<path d="M14.924 7.92325C15.1226 7.68216 15.3147 7.43574 15.5 7.18425C15.4222 6.56125 15.337 5.93175 15.2435 5.298L15.2113 5.269L15.329 5.0965L15.034 4.8285C13.5758 3.50475 12.118 2.18125 10.6597 0.858L10.2655 0.5L9.966 0.93925C9.45571 1.68417 8.90436 2.40011 8.3145 3.08375C8.34675 2.94675 8.382 2.8055 8.4205 2.65875C8.57825 2.06 8.3935 1.6535 8.2105 1.41825C7.86975 0.9795 7.22475 0.7375 6.3935 0.7375C4.0365 0.7375 0.6265 2.591 0.6265 5.94225C0.6265 6.40225 0.933 6.72375 1.3715 6.72375C1.69525 6.72375 2.06925 6.54275 2.48925 6.184C2.52875 6.31975 2.58825 6.448 2.67525 6.557C2.84175 6.766 3.08725 6.88125 3.36675 6.88125C3.4295 6.88125 3.494 6.87575 3.56025 6.86425C3.59 7.0085 3.6445 7.15125 3.7315 7.27575C2.91855 7.86168 2.07357 8.40186 1.2005 8.89375L0.64575 9.205L1.0885 9.607C0.998 9.663 0.90725 9.71925 0.817 9.77375C0.717 10.2358 0.61125 10.6917 0.5 11.1395C2.10125 12.5935 3.70225 14.0463 5.30325 15.5C6.69718 14.7417 8.04572 13.9028 9.342 12.9875C9.3425 12.9882 9.3425 12.9893 9.343 12.9897C9.4635 13.199 9.66 13.342 9.92875 13.4183C9.4635 13.9555 9.29625 14.4158 9.43125 14.7915C9.539 15.0907 9.81625 15.2695 10.1733 15.2695C13.5448 15.2695 15.4093 11.88 15.4093 9.537C15.4093 8.97825 15.298 8.49675 15.0875 8.145C15.0396 8.06642 14.9849 7.99221 14.924 7.92325ZM8.1315 3.98525C8.93675 3.104 9.681 2.17525 10.348 1.19675C11.8062 2.52025 13.2642 3.8435 14.7222 5.1675C14.1171 6.0511 13.4559 6.895 12.7428 7.694C12.5118 7.74275 12.2935 7.785 12.0935 7.8175C12.718 7.1445 13.3097 6.44575 13.853 5.7135L13.7072 5.58125C13.546 5.435 13.5227 5.17325 13.6505 4.99475C13.689 4.94025 13.7277 4.8865 13.7662 4.8325C12.794 3.9505 11.822 3.06775 10.8505 2.18575L10.7347 2.348C10.6067 2.526 10.3685 2.55075 10.208 2.4045L10.062 2.27275C9.442 3.10825 8.76225 3.90275 8.03775 4.66075C8.0595 4.45725 8.08975 4.233 8.1315 3.98525ZM9.89275 6.436C9.3825 5.9725 8.668 5.86775 8.02875 6.07825C8.0095 5.9525 7.98175 5.68875 7.9945 5.27375C8.75715 4.50683 9.47025 3.69218 10.1295 2.83475C10.3778 2.9635 10.673 2.93475 10.891 2.75675L13.2605 4.9075C13.149 5.182 13.176 5.504 13.337 5.747C12.762 6.49775 12.138 7.214 11.4775 7.90075C11.2005 7.93161 10.922 7.94788 10.6433 7.9495C10.5635 7.9495 10.493 7.9475 10.4272 7.94475C10.517 7.40675 10.3327 6.83525 9.89275 6.436ZM3.4205 6.41675C3.403 6.41825 3.3835 6.422 3.367 6.422C2.80825 6.422 2.863 5.62125 2.92225 5.2335C3.2305 4.9265 3.5205 4.606 3.82325 4.303C4.14275 3.9775 4.4785 3.6695 4.85625 3.424C5.23375 3.1805 5.6625 3.00775 6.12725 2.96475C5.663 2.91675 5.17775 3.03775 4.764 3.26975C4.345 3.4975 3.98725 3.813 3.65825 4.1425C3.3315 4.4755 3.03175 4.8275 2.72975 5.17375C2.4255 5.5155 2.1245 5.8585 1.75725 6.141C1.603 6.2255 1.4735 6.26425 1.37125 6.26425C1.185 6.26425 1.088 6.13875 1.088 5.942C1.088 2.80775 4.34475 1.1965 6.393 1.1965C7.468 1.1965 8.2105 1.641 7.9725 2.5425C7.283 5.162 7.6 6.29175 7.6 6.29175C7.33 6.7955 6.8095 6.95925 6.8095 6.95925C6.52586 6.88277 6.23327 6.84451 5.9395 6.8455C5.351 6.8455 4.93475 6.9915 4.93475 6.9915C4.71475 7.116 4.54475 7.16625 4.4135 7.16625C3.9385 7.16625 3.9745 6.50425 4.001 6.275C4.06375 6.2455 4.12475 6.2135 4.1835 6.179C4.419 6.0435 4.627 5.8735 4.83 5.707C5.0305 5.5375 5.2255 5.36825 5.432 5.2195C5.63925 5.073 5.86225 4.951 6.12675 4.902C6.05986 4.8901 5.99187 4.88565 5.924 4.88875C5.72 4.898 5.51525 4.97 5.337 5.06675C5.09425 5.195 4.8845 5.3645 4.681 5.53125C4.48025 5.702 4.28575 5.873 4.08325 6.03025C3.8815 6.18525 3.66875 6.32275 3.4205 6.41675ZM8.48125 11.5437C7.62198 12.1683 6.72741 12.7427 5.802 13.2642C4.344 11.9402 2.88625 10.6178 1.428 9.2935C2.35547 8.77096 3.25197 8.19525 4.113 7.56925C4.20675 7.604 4.307 7.626 4.41375 7.626C4.52325 7.626 4.638 7.607 4.759 7.57C4.06771 8.09249 3.35154 8.58123 2.613 9.0345C2.6615 9.07875 2.7105 9.123 2.75875 9.1675C2.91925 9.31325 2.8925 9.529 2.6965 9.64475C2.6365 9.67975 2.577 9.715 2.5175 9.7495L5.4335 12.3968C5.4935 12.3618 5.55275 12.3273 5.6125 12.2913C5.80875 12.1757 6.0975 12.1973 6.25825 12.343L6.404 12.476C7.16491 12.0082 7.90207 11.5028 8.61275 10.9618C8.51775 11.1725 8.47425 11.367 8.48125 11.5437ZM8.7795 10.345C8.02984 10.9396 7.24925 11.4941 6.441 12.0063C6.173 11.8605 5.818 11.8363 5.51675 11.9377L3.147 9.787C3.3425 9.58925 3.37425 9.32075 3.233 9.09525C4.09734 8.54841 4.93024 7.95339 5.72775 7.313C5.79525 7.30825 5.86525 7.305 5.93975 7.305C6.19229 7.30413 6.44383 7.33684 6.68775 7.40225L6.7305 7.414C6.6075 7.9315 6.75475 8.477 7.1995 8.88075C7.608 9.25125 8.17975 9.42125 8.73425 9.37825C8.8145 9.745 8.81 10.0845 8.7795 10.345ZM10.173 14.8103C9.86575 14.8103 9.73425 14.5763 9.97625 14.1407C10.26 13.778 10.6038 13.4795 10.946 13.1788C11.2943 12.8787 11.6482 12.5802 11.9835 12.2557C12.3145 11.9288 12.6322 11.5735 12.8612 11.1567C13.0945 10.7455 13.2165 10.263 13.1683 9.8015C13.1248 10.2635 12.9515 10.69 12.7063 11.0655C12.4593 11.4408 12.1493 11.7745 11.822 12.0922C11.5172 12.3927 11.195 12.681 10.8865 12.9873C10.7675 13.0052 10.6105 13.0227 10.449 13.0227C10.0658 13.0227 9.66125 12.923 9.694 12.4967C9.7885 12.2478 9.92775 12.0347 10.0843 11.8325C10.2425 11.6313 10.4145 11.438 10.5863 11.2385C10.7543 11.036 10.9248 10.8275 11.0535 10.5865C11.183 10.3503 11.2688 10.0673 11.2192 9.8015C11.1702 10.0645 11.0475 10.2863 10.9003 10.4923C10.7508 10.6975 10.5805 10.8915 10.4095 11.091C10.2423 11.293 10.071 11.4998 9.935 11.7338C9.89996 11.7925 9.86783 11.853 9.83875 11.915C9.76221 11.9236 9.68527 11.9281 9.60825 11.9285C9.21775 11.9285 8.65075 11.8038 9.11775 10.9865C9.11775 10.9865 9.42525 10.1198 9.15025 9.123C9.15025 9.123 9.31475 8.6055 9.82125 8.337C9.82125 8.337 10.082 8.40925 10.6433 8.40925C11.2538 8.40925 12.22 8.32375 13.5933 7.9665C13.6984 7.93816 13.8066 7.92329 13.9155 7.92225C16.1125 7.92225 14.7718 14.8103 10.173 14.8103Z" fill="#FB8500"/>
</svg>
