<svg fill="none" height="382" viewBox="0 0 382 382" width="382" xmlns="http://www.w3.org/2000/svg"><path d="m193.859 364.894c99.28 0 179.762-46.468 179.762-103.789 0-57.322-80.482-103.79-179.762-103.79-99.2793 0-179.7613 46.468-179.7613 103.79 0 57.321 80.482 103.789 179.7613 103.789z" fill="#f5f5f5"/><path d="m312.384 312.002c28.165 0 50.997-13.182 50.997-29.444s-22.832-29.445-50.997-29.445-50.997 13.183-50.997 29.445 22.832 29.444 50.997 29.444z" fill="#e0e0e0"/><path d="m183.322 298.441-57.529-33.226 65.757-37.963 57.537 33.218z" fill="#e0e0e0"/><path d="m26.6719 288.165 74.2001 42.838 62.235-35.923-74.1997-42.838z" fill="#e0e0e0"/><path d="m136.389 86.8132v-4.2173c-.032-.2436-.126-.475-.273-.6718-.148-.1967-.343-.3521-.568-.4513l-25.464-14.6076c-.607-.3051-1.277-.464-1.956-.464s-1.349.1589-1.956.464l-73.1832 42.0198c-.2248.099-.4203.255-.5675.451-.1472.197-.2412.429-.2729.672v4.218c.031.243.1247.475.272.672s.3432.352.5684.451l25.4565 14.584c.6069.305 1.2767.464 1.9559.464s1.349-.159 1.9558-.464l73.184-42.0196c.225-.0985.421-.2538.568-.4507.147-.1968.241-.4285.272-.6724z" fill="#f0f0f0"/><path d="m32.9876 111.108 25.4565 14.608c.6058.309 1.276.47 1.9558.47.6799 0 1.3501-.161 1.9559-.47l73.1832-42.0199c1.078-.6189 1.078-1.6197 0-2.2462l-25.456-14.5847c-.607-.3051-1.277-.464-1.956-.464s-1.349.1589-1.956.464l-73.1834 42.0198c-1.0772.604-1.0772 1.605 0 2.223z" fill="#fafafa"/><path d="m60.4011 126.19v4.209c-.6805.01-1.3528-.15-1.9558-.466l-25.4565-14.569c-.2252-.099-.4211-.254-.5684-.451-.1473-.196-.241-.428-.272-.672v-4.225c.015-.171.07-.336.1605-.481-.298.542-.0764 1.169.6799 1.604l25.4565 14.585c.6013.32 1.2748.48 1.9558.466z" fill="#e0e0e0"/><path d="m74.0781 90.5568 21.5677 12.2932 35.6252-20.4451-21.56-12.3004z" fill="#e0e0e0"/><path d="m95.891 101.917-20.8037-11.941c.5406-1.7638.5004-3.6546-.1146-5.3938l20.6738 11.8114s.3973 1.3064.2445 5.5234z" fill="#fff"/><path d="m94.5846 94.7359c.5806.3752 1.0645.882 1.4123 1.4794s.5497 1.2685.5894 1.9586v4.0191c0 1.268-.9016 1.78-2.0017 1.153l-20.4752-11.796v-.9932l20.2307 11.5362c.6647.382 1.1995.069 1.1995-.687v-3.7287c-.023-.4141-.1437-.8169-.3522-1.1754-.2084-.3585-.4988-.6626-.8473-.8874l-20.2307-11.5746v-1.1307z" fill="#ebebeb"/><path d="m74.1094 82.9473 35.6026-20.4523 20.498 11.7656c.582.3754 1.067.8834 1.415 1.4823s.549 1.2717.587 1.9633v4.0416c.027.2471-.014.497-.117.723-.104.226-.267.4197-.472.5605l-35.625 20.4527c.2011-.144.3607-.339.4627-.564.1019-.226.1426-.474.1179-.72v-4.0262c-.0372-.6907-.2381-1.3627-.5861-1.9605-.348-.5977-.8332-1.1042-1.4156-1.4775z" fill="#fafafa"/><path d="m95.9961 96.1951c.3632.5896.566 1.2638.5883 1.9559v4.026c.0247.246-.016.495-.118.72-.1019.225-.2615.42-.4627.564l35.6253-20.4525c.205-.1408.368-.3345.471-.5605.104-.226.144-.4759.117-.723v-4.0187c-.022-.692-.225-1.3663-.588-1.9558z" fill="#f0f0f0"/><path d="m52.1477 59.9586-.2063 2.7199 24.0813 12.9192.5424-1.5891z" fill="#ebebeb"/><path d="m76.2451 74.6428-23.325-13.4616-4.0568 2.3378 23.7833 13.9124z" fill="#fff"/><path d="m68.2686 75.9874-2.292 27.0306c.0112.305.0955.603.2457.869s.362.492.6176.659l13.5304 7.831c.2159.119.4565.187.7029.198l-8.404-34.2345c-.2451-.0134-.4847-.0785-.7029-.191l-.9703-.5653z" fill="#e0e0e0"/><path d="m73.6797 78.119 2.4142-2.0704 1.7648-1.528c.1834-.2903.3973-.5042.2827-.764l8.2971 33.9824c.1146.237.1451.764-.1834.963l-4.1791 3.575c-.3163.168-.6755.237-1.0314.199l-8.404-34.2347c.3509.0606.7118.0181 1.0391-.1223z" fill="#f0f0f0"/><path d="m77.8647 73.5349c.4737.275.3591.5806 0 .9932l-4.1867 3.5832c-.2665.1392-.5627.2119-.8634.2119-.3006 0-.5968-.0727-.8633-.2119l-3.6825-2.124c-.4813-.275-.5653-.6723-.191-.8862.246-.0998.5116-.142.7764-.1235.2648.0186.5219.0974.7516.2305l2.9032 1.6808c.0888.0449.187.0684.2865.0684.0996 0 .1977-.0235.2865-.0684l3.056-2.6588c.1605-.0916.1605-.2368 0-.3285l-23.9896-13.943 1.146-.6647z" fill="#fafafa"/><path d="m45.1953 61.2651 22.9429 13.2478v43.6551l-22.9429-13.256z" fill="#ebebeb"/><path d="m67.3957 75.2388-22.2018-12.7436c-1.3579 1.4397-3.1362 2.413-5.0806 2.781l22.0185 12.69s1.421-.3361 5.2639-2.7274z" fill="#fff"/><path d="m60.0019 77.928c.6617.3314 1.3915.504 2.1315.504.7401 0 1.4699-.1726 2.1316-.504l3.7283-2.1851c1.1766-.6799 1.1766-1.7724 0-2.4524l-21.8733-12.5602-.9244.5349 21.5218 12.4302c.1587.0463.2981.1428.3973.2751.0992.1322.1528.2931.1528.4584s-.0536.3261-.1528.4584c-.0992.1322-.2386.2287-.3973.275l-3.4762 2.0017c-.397.1995-.8353.3035-1.2797.3035s-.8826-.104-1.2797-.3035l-21.5142-12.4379-1.0543.6035z" fill="#fafafa"/><path d="m38.1211 65.3297v43.6473l21.881 12.56c.6616.332 1.3915.504 2.1315.504.7401 0 1.4699-.172 2.1316-.504l3.7436-2.147c.2433-.107.4533-.278.6079-.494.1546-.217.2481-.471.2707-.736v-43.647c-.0237.2658-.1195.5201-.277.7355s-.3708.3837-.6169.4869l-3.7283 2.1927c-.6617.3314-1.3915.5039-2.1316.5039-.74 0-1.4699-.1725-2.1315-.5039z" fill="#ebebeb"/><path d="m62.1325 78.3941c.7417.0146 1.475-.1589 2.1315-.5043l3.7284-2.1545c.2432-.1053.4533-.2746.608-.4899.1547-.2152.2482-.4683.2706-.7325v43.6471c-.0227.265-.1162.519-.2708.736-.1545.216-.3645.387-.6078.494l-3.7437 2.147c-.6565.345-1.3898.519-2.1315.504z" fill="#f0f0f0"/><path d="m246.445 236.84c-.115-1.933-.375-4.248-.688-6.937-1.169-10.207-2.765-24.188 1.467-37.581 2.575-8.152 8.779-17.817 18.466-20.498 2.155-.596 7.365-1.475 9.367 3.147.281.668.449 1.378.496 2.101.207 2.934-1.115 5.524-2.582 7.885-1.688 2.742-3.644 5.348-5.539 7.884-1.788 2.399-3.644 4.875-5.264 7.442-1.749 2.789-3.282 5.708-4.584 8.732l-.619-.267c1.3-3.055 2.832-6.005 4.584-8.825 1.627-2.589 3.492-5.08 5.295-7.487 1.879-2.521 3.82-5.119 5.5-7.831 1.406-2.292 2.674-4.744 2.483-7.487-.041-.647-.191-1.282-.443-1.879-1.787-4.134-6.585-3.308-8.564-2.766-9.428 2.613-15.486 12.071-18.008 20.047-4.186 13.263-2.597 27.161-1.436 37.306.306 2.697.573 5.028.688 6.976z" fill="#023047"/><path d="m247.132 247.948c-.051.008-.102.008-.153 0-.146-.028-.284-.091-.402-.182-.119-.092-.214-.21-.278-.345-.133-.378-.133-.79 0-1.169.108-.732.108-1.476 0-2.208 0-.412-.068-.848-.068-1.237v-4.745c.61-8.522 3.107-16.803 7.311-24.241 3.728-6.487 7.854-10.803 12.988-13.6 2.768-1.52 5.803-2.493 8.939-2.865 2.768-.305 5.552.43 7.808 2.063 2.33 1.841 3.377 4.997 2.498 7.495-.619 1.75-2.032 3.056-3.476 4.24-2.575 2.101-5.386 3.981-8.098 5.799-2.254 1.528-4.584 3.056-6.762 4.737-6.661 5.141-12.25 11.54-16.449 18.832-.687 1.185-1.337 2.407-1.933 3.629l-.244.482c-.239.436-.448.888-.627 1.352-.038.099-.076.306-.13.542-.038.436-.177.857-.404 1.23-.144.127-.329.195-.52.191zm29.437-49.957c-.344 0-.688 0-1.039.045-3.044.355-5.989 1.3-8.672 2.781-5.011 2.728-9.053 6.968-12.72 13.34-4.148 7.346-6.613 15.521-7.22 23.936v4.698c0 .367 0 .764.069 1.185.123.8.123 1.614 0 2.414-.082.248-.082.516 0 .764.019.039.047.072.082.099.034.026.074.045.117.054.136-.283.229-.584.275-.894.036-.212.087-.422.152-.627.187-.49.406-.968.657-1.428l.237-.474c.611-1.238 1.268-2.468 1.956-3.667 1.428-2.472 3.013-4.851 4.745-7.121 3.422-4.472 7.416-8.476 11.88-11.91 2.2-1.681 4.538-3.247 6.799-4.76 2.705-1.811 5.493-3.683 8.053-5.761 1.36-1.108 2.697-2.353 3.262-3.942.764-2.238-.176-5.073-2.292-6.746-1.827-1.362-4.063-2.063-6.341-1.986z" fill="#023047"/><path d="m246.558 241.424h-.084c-.043-.01-.083-.028-.119-.054s-.066-.059-.089-.096c-.023-.038-.038-.08-.044-.124s-.004-.088.008-.131c6.303-25.135 23.73-36.351 33.035-39.017.085-.024.176-.013.253.03.078.043.135.114.16.199.024.086.013.178-.03.256-.043.079-.114.138-.199.164-9.168 2.621-26.336 13.691-32.562 38.529-.021.07-.065.132-.124.176s-.131.068-.205.068z" fill="#023047"/><path d="m246.521 220.796c-.09-.008-.173-.051-.232-.119-.058-.069-.087-.158-.081-.248 2.009-27.145 19.765-42.02 21.782-43.617.034-.028.073-.05.116-.063s.088-.017.132-.012.087.019.126.042c.039.022.072.051.099.087.028.035.049.074.061.117.012.042.016.087.011.131s-.019.087-.04.125c-.022.039-.051.073-.085.101-1.994 1.581-19.543 16.28-21.522 43.143-.01.089-.053.171-.121.229s-.156.088-.246.084z" fill="#023047"/><path d="m244.402 126.129-42.486-24.517c-.328-.236-.713-.38-1.116-.419-.402-.039-.808.029-1.176.198l-3.056 1.764c-.336.234-.603.554-.774.926-.17.372-.238.783-.196 1.191v116.288c.062 1.133.391 2.236.959 3.218s1.36 1.817 2.311 2.436l42.478 24.486c.328.237.713.383 1.115.423.403.041.809-.026 1.177-.194l3.056-1.772c.332-.235.596-.555.764-.925.167-.371.234-.779.191-1.184v-116.265c-.059-1.132-.384-2.233-.948-3.215s-1.351-1.818-2.299-2.439z" fill="#263238"/><path d="m204.751 223.554-3.056 1.765v9.672c.016.283.098.559.24.805.142.245.34.454.578.608l1.428.826c.254.128.534.195.818.195s.564-.067.817-.195l1.429-.826c.508-.327.9-.805 1.123-1.367l2.758-7.946z" fill="#263238"/><path d="m201.695 234.991c.016.283.098.559.24.805.142.245.34.454.578.608l1.428.826c.099.059.21.096.325.107.115.01.231-.005.339-.045.108-.041.205-.105.285-.189.08-.083.139-.184.175-.294l2.742-7.953-6.112-3.537z" fill="#37474f"/><path d="m235.404 241.195-3.056 1.772v9.665c.014.284.094.56.235.807s.337.457.574.614l1.437.825c.252.128.531.195.813.195.283 0 .562-.067.814-.195l1.436-.825c.508-.328.901-.806 1.124-1.368l2.75-7.953z" fill="#263238"/><path d="m232.348 252.632c.014.284.094.56.235.807s.337.457.574.614l1.437.825c.099.06.209.097.324.107.115.011.231-.004.339-.045.108-.04.206-.105.285-.188.08-.084.14-.184.175-.294l2.758-7.953-6.112-3.538z" fill="#37474f"/><path d="m199.067 103.469 42.478 24.448c.951.62 1.743 1.456 2.311 2.44.568.983.896 2.087.959 3.221v116.288c.081.409.032.832-.14 1.211s-.459.695-.82.903c-.36.208-.777.298-1.191.258-.415-.041-.806-.21-1.119-.485l-42.478-24.494c-.95-.619-1.741-1.454-2.308-2.436s-.894-2.085-.955-3.217v-116.258c-.081-.408-.033-.831.138-1.21.172-.378.458-.694.818-.901.361-.208.777-.297 1.191-.256.414.042.804.212 1.116.488z" fill="#37474f"/><path d="m137.383 262.419 45.947 26.526 64.329-37.138-3.064-1.773-45.947-26.526-61.265 35.374z" fill="#455a64"/><path d="m183.328 288.945v-3.537l64.329-37.138v3.537z" fill="#263238"/><path d="m183.618 283.795-.466-.313c8.152-12.338 8.099-33.654 7.434-39.002-.053-.359-.092-.581-.099-.665l.557-.091c0 .168.062.366.092.603.596 3.782 3.965 24.326 7.953 30.56l-.473.306c-3.156-4.897-5.853-18.115-7.205-25.739.084 8.656-1.176 24.387-7.793 34.341z" fill="#fafafa"/><path d="m210.451 264.955c-.695-.206-16.938-5.126-18.435-12.292l.557-.115c1.421 6.838 17.87 11.819 18.038 11.873z" fill="#fafafa"/><path d="m194.054 262.052-.412-1.749c-.057-.322-.22-.615-.464-.831-.245-.216-.555-.344-.881-.361-.269-.04-.543.005-.787.126-.243.122-.443.315-.573.554l-.527-.222c.177-.349.458-.635.804-.819.346-.183.741-.255 1.129-.205.281.018.555.095.804.227s.467.315.64.537c.092-.724.462-1.384 1.031-1.841.216-.113.458-.168.702-.16.243.008.481.079.689.206l-.252.504c-.128-.082-.274-.13-.425-.139s-.302.02-.439.086c-.649.366-.901 1.78-.939 2.292z" fill="#fafafa"/><path d="m195.651 267.881-.504-1.589c-.573-1.795-1.528-2.827-2.659-2.895-.472-.009-.937.119-1.337.37-.401.252-.719.614-.916 1.043l-.512-.244c.241-.537.637-.989 1.136-1.301.499-.311 1.079-.468 1.668-.449.679.038 1.848.405 2.719 2.177.191-1.398.764-3.644 2.239-4.584.529-.29 1.124-.438 1.728-.432.603.007 1.195.169 1.718.471l-.237.512c-.438-.259-.935-.402-1.443-.414s-1.011.107-1.46.345c-1.964 1.222-2.094 5.264-2.094 5.31z" fill="#fafafa"/><path d="m188.754 271.762-.504-.259c1.131-2.178 3.614-3.744 5.768-3.637.457.005.907.113 1.317.315.41.203.769.494 1.052.854.207-1.099.635-2.145 1.257-3.075s1.427-1.724 2.364-2.334c1.006-.668 2.167-1.066 3.371-1.156s2.411.132 3.505.644l-.222.512c-1.007-.467-2.117-.668-3.224-.585s-2.175.447-3.102 1.059c-.99.642-1.817 1.507-2.414 2.526-.597 1.018-.948 2.163-1.024 3.341v1.444l-.534-1.345c-.177-.478-.496-.89-.914-1.182s-.914-.45-1.424-.453c-1.979-.099-4.233 1.337-5.272 3.331z" fill="#fafafa"/><path d="m185.653 280.197-.497-.275c.688-1.253 4.347-7.548 8.679-8.687.612-.175 1.253-.218 1.883-.128.629.091 1.232.315 1.769.656l-.29.481c-.473-.299-1.005-.495-1.559-.576-.554-.08-1.119-.043-1.658.11-3.178.84-6.463 5.057-8.327 8.419z" fill="#fafafa"/><path d="m241.531 212.896v3.538l-58.201 33.6-45.947-26.526v-3.537l58.201-33.601z" fill="#263238"/><path d="m241.531 212.896-58.201 33.601-45.947-26.526 58.201-33.601z" fill="#455a64"/><path d="m241.531 173.993v3.53l-58.201 33.608-45.947-26.533v-3.53l58.201-33.608z" fill="#263238"/><path d="m241.531 173.993-58.201 33.601-45.947-26.526 58.201-33.608z" fill="#455a64"/><path d="m183.134 161.456-42.479-24.486c-.328-.237-.712-.383-1.115-.424-.402-.04-.808.027-1.177.195-.55.313-2.506 1.451-3.056 1.764-.334.235-.6.555-.769.928-.17.372-.236.782-.193 1.189v116.258c.062 1.133.391 2.235.959 3.217.568.983 1.36 1.817 2.311 2.436l42.478 24.494c.328.237.713.383 1.115.424.403.04.809-.027 1.177-.195.55-.321 2.521-1.451 3.056-1.78.336-.232.604-.55.776-.921s.242-.781.202-1.187v-116.251c-.063-1.135-.393-2.24-.964-3.224s-1.366-1.819-2.321-2.437z" fill="#263238"/><path d="m183.332 179.303 3.071-1.772v-10.62l-3.079 1.773z" fill="#000" opacity=".2"/><path d="m244.605 143.93 3.072-1.765v-10.619l-3.079 1.772z" fill="#000" opacity=".2"/><path d="m143.509 258.881-3.056 1.765v9.673c.016.283.098.558.24.804s.34.454.578.609l1.428.825c.254.128.534.195.818.195s.564-.067.817-.195l1.429-.825c.506-.327.898-.802 1.123-1.36l2.758-7.953z" fill="#263238"/><path d="m140.449 270.318c.016.284.098.559.24.805.142.245.34.454.578.609l1.428.825c.099.06.21.096.325.107s.231-.005.339-.045c.108-.041.205-.105.285-.189.08-.083.139-.183.174-.293l2.758-7.954-6.111-3.537z" fill="#37474f"/><path d="m174.138 276.568-3.056 1.765v9.672c.014.283.095.558.235.804.141.246.338.454.575.609l1.436.826c.252.128.531.195.814.195s.561-.067.814-.195l1.436-.826c.504-.328.895-.803 1.123-1.359l2.75-7.954z" fill="#263238"/><path d="m171.082 287.967c.014.283.095.558.235.804.141.245.338.454.575.609l1.436.825c.099.06.21.097.325.108.115.01.23-.005.339-.046.108-.04.205-.104.285-.188.079-.083.139-.184.174-.294l2.751-7.953-6.112-3.537z" fill="#37474f"/><path d="m137.582 138.742 42.486 24.487c.95.621 1.741 1.457 2.308 2.44.566.984.894 2.087.955 3.221v120.055s-2.361-1.398-3.263-1.918l-42.478-24.494c-.951-.619-1.743-1.453-2.311-2.436-.568-.982-.897-2.084-.959-3.217v-116.258c-.082-.408-.033-.831.138-1.21.172-.379.458-.694.818-.902.36-.207.777-.297 1.191-.255.413.042.804.212 1.115.487z" fill="#37474f"/><path d="m180.068 163.229-42.486-24.487c-.311-.275-.702-.445-1.115-.487-.414-.042-.831.048-1.191.255-.36.208-.646.523-.818.902-.171.379-.22.802-.138 1.21v10.383l49.011 28.268v-10.383c-.061-1.134-.389-2.237-.955-3.221-.567-.983-1.358-1.819-2.308-2.44z" fill="#000" opacity=".2"/><path d="m238.466 174.276c-.075-.002-.146-.032-.198-.085-.053-.053-.083-.123-.085-.198v-34.884l-33.272 19.207c-.031.02-.066.034-.103.04s-.074.004-.11-.005c-.036-.01-.07-.027-.099-.05s-.053-.051-.07-.084c-.02-.032-.032-.068-.038-.105-.005-.037-.003-.075.006-.111s.026-.07.048-.1c.023-.03.051-.055.083-.074l33.738-19.451c.043-.027.092-.041.142-.041s.099.014.141.041c.042.025.077.061.101.104.024.042.037.091.036.14v35.373c.001.041-.007.081-.024.118s-.041.07-.071.097c-.031.027-.067.047-.105.058-.039.012-.08.015-.12.01z" fill="#fafafa"/><path d="m232.339 165.429h-.084c-.072-.016-.136-.061-.176-.124s-.053-.139-.037-.212l5.699-24.685-11.307 19.581c-.018.033-.042.062-.071.085-.028.023-.062.04-.097.05-.036.01-.073.013-.11.008s-.072-.017-.104-.036c-.033-.018-.062-.043-.085-.072-.024-.03-.041-.064-.051-.1s-.012-.074-.007-.112c.005-.037.017-.073.036-.105l12.224-21.224c.035-.059.089-.103.153-.125.065-.022.135-.022.198.002.063.026.114.073.145.134.031.06.039.129.023.195l-6.112 26.534c-.013.054-.043.103-.086.14-.042.037-.095.06-.151.066z" fill="#fafafa"/><path d="m220.093 156.62c-.039 0-.078-.008-.113-.024-.036-.016-.068-.039-.094-.068-.052-.053-.081-.124-.081-.198 0-.075.029-.146.081-.199l18.382-17.687c.053-.052.124-.081.199-.081.074 0 .145.029.198.081.053.055.083.127.083.203 0 .075-.03.148-.083.202l-18.381 17.679c-.025.027-.054.049-.087.065s-.068.025-.104.027z" fill="#fafafa"/><path d="m238.469 168.63c-.074-.002-.145-.032-.198-.085-.052-.053-.083-.123-.085-.198 0-4.63-5.164-4.943-5.386-4.95-.041-.003-.082-.015-.119-.035s-.069-.047-.095-.08c-.024-.032-.04-.07-.048-.109-.008-.04-.007-.081.002-.12.189-.946.125-1.925-.185-2.838s-.854-1.729-1.579-2.365c-.265-.264-.584-.469-.934-.601-.351-.132-.725-.187-1.099-.163-.199.034-.389.11-.556.223-.167.114-.309.261-.414.434-.032.056-.082.099-.141.123-.06.023-.126.026-.187.007s-.114-.058-.15-.111c-.036-.052-.054-.116-.049-.179 0-.176.313-4.294-3.308-4.699-.047-.006-.091-.023-.13-.049-.038-.027-.07-.062-.092-.104-.021-.04-.031-.085-.031-.13s.01-.089.031-.13c0 0 1.605-3.002.986-4.477-.072-.173-.183-.327-.325-.449s-.311-.209-.493-.254c-.036-.009-.07-.026-.099-.049-.03-.023-.054-.052-.072-.085s-.029-.069-.032-.106c-.004-.038.001-.075.012-.111.023-.071.073-.13.138-.166.065-.035.142-.044.214-.025.263.068.507.196.711.376.204.179.364.403.465.655.589 1.399-.405 3.713-.832 4.584 2.811.543 3.331 3.194 3.407 4.508.251-.178.538-.301.84-.359.46-.045.923.016 1.356.176.432.16.823.416 1.143.748.759.67 1.34 1.517 1.691 2.467.35.949.46 1.971.318 2.973 1.238.161 5.608 1.024 5.6 5.486-.004.071-.034.138-.085.187-.051.05-.119.078-.19.08z" fill="#fafafa"/><path d="m238.469 161.005c-.071.001-.14-.026-.193-.074-.052-.048-.084-.114-.09-.185-.122-1.62-1.062-3.713-2.246-4.233-.235-.105-.495-.139-.749-.098-.253.04-.49.154-.68.327-.047.03-.101.046-.156.046-.056 0-.11-.016-.157-.046-.049-.026-.088-.067-.114-.116-.026-.048-.037-.104-.031-.159 0 0 .252-2.865-1.039-4.049-.28-.234-.612-.398-.969-.477-.356-.08-.726-.074-1.079.019-.049.01-.099.007-.146-.009s-.089-.045-.121-.083c-.033-.039-.055-.085-.064-.134-.01-.05-.006-.101.01-.149.26-.71.764-2.704.084-3.415-.321-.328-.909-.359-1.757-.084-.058.019-.12.019-.178 0s-.108-.057-.143-.107c-.035-.049-.053-.108-.053-.168s.018-.119.053-.168c.474-.596 1.643-2.338 1.353-3.171-.048-.115-.126-.215-.225-.29-.1-.075-.217-.123-.341-.137-.036-.009-.07-.025-.1-.048-.03-.022-.055-.05-.074-.081-.02-.032-.032-.068-.038-.105-.005-.037-.003-.074.006-.11.007-.037.022-.071.043-.102.021-.03.048-.056.08-.075.031-.02.067-.032.103-.037.037-.005.074-.003.11.007.215.032.417.119.587.253.171.134.303.31.383.511.314.91-.45 2.292-.985 3.056.275-.065.563-.062.837.008.274.071.527.207.737.397.84.871.435 2.713.183 3.576.373-.045.75-.01 1.109.102.358.112.688.299.969.547 1.138 1.039 1.261 3.056 1.245 3.981.239-.113.5-.171.764-.171s.525.058.764.171c1.444.634 2.445 2.888 2.59 4.714.003.036-.001.073-.012.108-.012.035-.03.068-.054.096-.025.027-.054.05-.087.066-.034.016-.07.026-.106.028z" fill="#fafafa"/><path d="m254.924 126.243c-.036-.405-.18-.794-.416-1.126-.236-.331-.557-.594-.928-.761l-45.542-26.2966c-1.013-.5122-2.132-.7791-3.267-.7791-1.134 0-2.253.2669-3.266.7791l-70.043 40.4466c-.372.166-.692.429-.929.761-.236.331-.38.72-.416 1.126v3.537c.036.406.18.794.416 1.126.237.332.557.594.929.761l45.542 26.289c1.011.516 2.131.785 3.266.785s2.255-.269 3.266-.785l70.044-40.438c.371-.167.692-.43.928-.761.236-.332.38-.721.416-1.126z" fill="#37474f"/><path d="m177.004 168.569-45.542-26.289c-1.803-1.047-1.803-2.735 0-3.774l70.043-40.4466c1.013-.5122 2.132-.7791 3.266-.7791 1.135 0 2.254.2669 3.266.7791l45.542 26.2966c1.811 1.047 1.811 2.728 0 3.774l-70.043 40.439c-1.012.516-2.131.785-3.266.785-1.136 0-2.255-.269-3.266-.785z" fill="#455a64"/><path d="m244.596 136.848-21.438 26.533-36.756 21.224-.007-14.149z" fill="#000" opacity=".1"/><path d="m241.533 177.523-18.375 24.761-36.756 21.232v-14.157z" fill="#000" opacity=".1"/><path d="m241.533 216.434-18.375 24.761-36.756 21.231v-14.157z" fill="#000" opacity=".1"/><path d="m157.213 293.712-56.353 32.539-63.4577-36.726 56.3527-32.531z" fill="#023047"/><path d="m157.213 293.712-56.353 32.539-63.4577-36.726 56.3527-32.531z" fill="#000" opacity=".5"/><path d="m93.755 212.889v44.105l-56.3527 32.531v-44.098z" fill="#023047"/><path d="m93.755 212.889v44.105l-56.3527 32.531v-44.098z" fill="#000" opacity=".23"/><path d="m100.86 282.145v44.106l-63.4577-36.726v-44.098z" fill="#023047"/><path d="m100.86 282.145v44.106l-63.4577-36.726v-44.098z" fill="#000" opacity=".38"/><path d="m157.216 249.606v44.106l-63.4582-36.718v-44.105z" fill="#023047"/><path d="m157.216 249.606v44.106l-63.4582-36.718v-44.105z" fill="#000" opacity=".4"/><path d="m157.216 293.712v-44.106l-56.353 32.539v44.106z" fill="#023047"/><path d="m157.216 293.712v-44.106l-56.353 32.539v44.106z" fill="#000" opacity=".23"/><path d="m93.7578 212.889.0764-24.418 63.3048 36.764.077 24.371z" fill="#023047"/><path d="m93.7578 212.889.0764-24.418 63.3048 36.764.077 24.371z" fill="#000" opacity=".2"/><path d="m100.863 282.145 5.287-21.361 55.841-32.241-4.775 21.063z" fill="#023047"/><path d="m100.863 282.145 5.287-21.361 55.841-32.241-4.775 21.063z" fill="#000" opacity=".3"/><path d="m37.4029 245.427-6.7232-22.156 56.3526-32.531 6.7232 22.149z" fill="#023047"/><path d="m37.4029 245.427-6.7232-22.156 56.3526-32.531 6.7232 22.149z" fill="#000" opacity=".1"/><path d="m37.4037 245.427-13.2631-18.313 63.4655 36.718 13.2559 18.313z" fill="#023047"/><path d="m37.4037 245.427-13.2631-18.313 63.4655 36.718 13.2559 18.313z" fill="#000" opacity=".45"/><g fill="#fff" opacity=".7"><path d="m117.457 313.133c-.092 0-.18-.036-.246-.1s-.104-.152-.106-.244v-7.762c.002-.093.04-.181.106-.246.065-.066.153-.103.246-.105.092.002.179.04.243.105.065.066.101.154.101.246v7.762c0 .092-.037.179-.101.243-.064.065-.152.101-.243.101z" opacity=".7"/><path d="m116.44 307.716c-.046.007-.092.007-.138 0-.083-.038-.148-.107-.183-.192-.034-.086-.034-.181 0-.266l1.238-2.85 1.375 1.589c.049.071.07.158.06.244-.011.086-.053.165-.119.221-.065.057-.149.088-.235.087-.087-.002-.17-.035-.233-.093l-.65-.764-.764 1.833c-.033.063-.084.115-.146.149-.063.034-.134.049-.205.042z" opacity=".7"/><path d="m120.656 311.307c-.092-.002-.179-.04-.243-.105-.065-.066-.101-.154-.1-.246v-7.755c0-.091.036-.179.1-.243.065-.064.152-.101.243-.101s.179.037.243.101c.065.064.101.152.101.243v7.747c.001.046-.007.092-.024.135-.016.043-.041.082-.073.116-.032.033-.071.06-.113.079-.042.018-.088.028-.134.029z" opacity=".7"/><path d="m119.641 305.89c-.045.008-.092.008-.137 0-.042-.018-.08-.044-.112-.077-.031-.033-.056-.072-.072-.115-.017-.043-.024-.088-.023-.134s.012-.09.031-.132l1.23-2.888 1.375 1.582c.064.065.099.153.099.244s-.035.179-.099.244c-.032.033-.07.059-.112.076-.042.018-.087.027-.132.027-.046 0-.091-.009-.133-.027-.042-.017-.08-.043-.112-.076l-.649-.764-.764 1.834c-.032.074-.088.134-.159.172-.07.037-.152.05-.231.034z" opacity=".7"/></g><g fill="#fff" opacity=".7"><path d="m108.218 318.397c-.13.002-.259-.03-.374-.092-.138-.088-.25-.212-.324-.359-.074-.146-.107-.31-.096-.474v-.955c.002-.091.04-.179.105-.243.066-.064.154-.1.246-.1s.179.036.243.1c.065.065.101.152.101.243v.955c0 .138 0 .214.069.23.069.015.107 0 .221-.061.215-.199.385-.442.497-.712.112-.271.164-.562.153-.855v-3.972c0-.092.036-.179.101-.244.064-.064.151-.1.243-.1.091 0 .178.036.243.1.064.065.1.152.1.244v3.972c.018.413-.063.823-.234 1.199s-.429.706-.751.963c-.163.101-.351.157-.543.161z" opacity=".7"/><path d="m104.574 315.196v-.596c.091-1.53.538-3.018 1.306-4.345.768-1.326 1.836-2.455 3.118-3.295 1.253-.718 2.445-.825 3.361-.29.489.335.879.795 1.129 1.333s.351 1.133.292 1.722v.199zm6.502-8.206c-.612.029-1.206.213-1.727.535-1.098.723-2.028 1.674-2.727 2.787-.699 1.114-1.149 2.365-1.322 3.669l7.77-4.492c.033-.443-.049-.886-.237-1.288-.189-.402-.479-.748-.84-1.004-.283-.148-.599-.219-.917-.207z" opacity=".7"/></g><path d="m24.1406 227.114 63.4655 36.718 13.2559 18.313-13.9588-17.664z" fill="#fff" opacity=".7"/><path d="m157.216 249.606-56.353 32.539v44.106l1.055-43.22z" fill="#fff" opacity=".7"/><path d="m74.5224 231.966c5.814-.841 11.1238-4.584 14.516-9.291 1.5819-2.199 2.7472-4.669 3.438-7.288.7336-2.45.8543-5.042.3514-7.549-1.0467-4.194-4.9278-6.677-9.0305-7.196-2.0818-.274-4.1987-.068-6.1884.603-2.063.708-3.8529 2.044-5.1188 3.82-.7936.946-1.293 2.104-1.4363 3.331-.0122.481.1572.948.4744 1.309s.7589.59 1.237.639c1.2302.104 2.4596-.208 3.4915-.886 1.2582-.705 2.3664-1.65 3.2622-2.781 1.9217-2.371 3.3597-5.097 4.2326-8.022.6125-2.51.6125-5.13 0-7.64-.4653-2.625-1.6653-5.065-3.4609-7.036-2.0585-1.872-4.6707-3.023-7.4414-3.278-2.7575-.379-5.5652-.117-8.2053.764-1.1597.352-2.234.94-3.1554 1.727-.657.611-1.4057 1.619-1.1383 2.613.2674.993 1.719 1.436 2.7045 1.306 1.4587-.273 2.7948-.997 3.82-2.07 1.1427-1.125 2.1132-2.412 2.8803-3.82.57-1.012.8675-2.155.8633-3.316-.0993-4.844-5.4549-7.976-9.6493-8.862-1.1322-.237-2.292-.314-3.4456-.23-.3897 0-.1528.642.1604.619 2.2571-.102 4.5002.404 6.494 1.467 1.9671.904 3.6193 2.375 4.7445 4.225.5014.912.7489 1.942.7167 2.982-.0323 1.04-.3431 2.052-.9001 2.931-.7481 1.303-1.6795 2.492-2.7657 3.53-.9091.825-2.292 1.78-3.5679 1.688-.2106 0-.4169-.06-.5952-.172s-.3215-.272-.4132-.462c-.0385-.251-.0178-.507.0604-.748.0783-.242.212-.462.3903-.642.6747-.727 1.509-1.286 2.4372-1.635 2.292-.953 4.7739-1.361 7.2503-1.192 2.5522.046 5.0341.843 7.1358 2.292 1.8309 1.52 3.1312 3.583 3.713 5.89.7372 2.345.9664 4.819.6724 7.258-.4538 2.455-1.3969 4.794-2.7734 6.876-1.4134 2.338-3.1858 4.584-5.8446 5.501-.657.237-2.0322.581-2.292-.374-.2597-.955.489-2.132.9703-2.873 1.0644-1.675 2.6161-2.984 4.4465-3.751 1.7663-.708 3.673-.996 5.5696-.84 3.5984.267 7.2503 2.146 8.5033 5.722.6285 2.137.6969 4.399.1986 6.57-.4494 2.38-1.3048 4.665-2.5288 6.754-2.6328 4.44-6.62 7.918-11.376 9.925-1.1307.488-2.292.901-3.4762 1.283-.1222.046-.0687.351.0688.329z" fill="#e0e0e0"/><path d="m50.2329 165.635c-3.056-.221-7.2656 2.185-5.7682 3.942 1.4974 1.758 5.4702-1.085 5.4702-1.085s-.3743 3.553.9245 3.958 3.056-2.987 1.7572-5.157c.6263.247 1.3049.332 1.9728.246.6678-.085 1.3032-.338 1.8472-.735 1.8489-1.36-.107-2.643-2.7122-2.414 0 0 1.8641-6.112-1.9024-4.943-1.8871.573-2.5517 2.781-1.5891 6.188z" fill="#023047"/><path d="m50.2329 165.635c-3.056-.221-7.2656 2.185-5.7682 3.942 1.4974 1.758 5.4702-1.085 5.4702-1.085s-.3743 3.553.9245 3.958 3.056-2.987 1.7572-5.157c.6263.247 1.3049.332 1.9728.246.6678-.085 1.3032-.338 1.8472-.735 1.8489-1.36-.107-2.643-2.7122-2.414 0 0 1.8641-6.112-1.9024-4.943-1.8871.573-2.5517 2.781-1.5891 6.188z" fill="#fff" opacity=".65"/><path d="m53.0748 166.934c-.169-.166-.3476-.321-.5348-.466-.2674-.206-.55-.405-.8174-.604-.2604-.189-.5335-.36-.8175-.512-.1635-.09-.3318-.172-.5043-.244-.238-.112-.5029-.154-.764-.122-.0684.002-.135.022-.1929.058-.0579.037-.105.088-.1362.149s-.0455.129-.0414.198c.0042.068.0266.134.0649.191.2101.227.4723.4.764.504l.4126.221c.2827.168.5348.359.764.55s.5348.375.764.566c.3941.319.8347.577 1.3064.764.0212.011.0448.017.0688.017s.0476-.006.0688-.017c.3896-.306-.1834-1.032-.405-1.253z" fill="#455a64"/><path d="m296.645 81.5877c-3.338 4.4923-7.808 29.1923-9.496 37.1153-8.121-.237-18.986-.619-23.096-1.047-4.584-.481-14.371-1.421-19.176-.764-11.926 1.528-11.46 9.367-11.17 11.414.313 2.338 1.986 3.408 8.404 1.949 1.436-.316 2.9-.488 4.37-.512.619 0 1.925-.314 2.414.214.764.764-1.444 2.047-1.994 2.399-.848.55-1.734 1.245-1.91 2.238-.05.182-.047.374.008.554.056.18.162.34.306.462.311.127.659.127.97 0 2.929-.695 5.755-1.771 8.404-3.201.999-.602 2.05-1.114 3.14-1.528 1.658-.535 3.369-.222 5.035-.222 3.583 0 22.522 1.88 30.942 2.736 5.829.588 6.448-5.165 8.457-10.994 2.468-7.228 8.312-45.2369 8.312-45.2369-5.898-.8556-9.947-.9091-13.92 4.4236z" fill="#ffa8a7"/><path d="m310.657 76.5683c-2.819-.5196-9.168-1.3065-12.621 2.5517-3.454 3.8582-4.271 7.9074-5.791 13.752-1.521 5.8446-4.218 16.311-4.218 16.311s4.454 6.395 18.397 4.584z" fill="#37474f"/><path d="m345.672 278.585-9.802.008-2.819-21.278 12.369-.489z" fill="#ffa8a7"/><path d="m313.124 267.958c-1.665 2.895-7.021 2.659-11.46 1.635l-.512-20.918 13.103-.52z" fill="#ffa8a7"/><path d="m345.006 144.136c.351 9.054-.848 62.587-.848 62.587.328 2.598 3.018 7.128 3.575 16.503.818 13.614-1.955 42.646-1.955 42.646s-5.616 2.934-11.667.688c0 0-6.157-42.02-8.404-55.452-1.94-11.689-4.431-43.043-4.431-43.043l-4.836 40.186c.887 4.757 1.253 9.596 1.093 14.432-.199 6.25-3.759 36.596-3.759 36.596-4.062 1.328-8.425 1.432-12.545.298 0 0-2.919-47.093-3.255-52.8-.382-6.51-.122-63.97-.122-63.97z" fill="#023047"/><path d="m321.292 168.08s-8.564-2.429-14.401-7.64c0 0 2.735 4.668 10.482 8.809l-.443 35.075z" fill="#000" opacity=".2"/><path d="m324.698 296.333c-.313.321-.13 2.437.252 2.987s2.72 2.414 6.777 2.552c3.874.122 7.296-.535 9.504-2.063s3.247-3.155 3.377-5.348-.199-4.324.764-6.059c.909-1.596 2.384-3.422 2.682-4.286.664-1.871-.145-4.477-.145-4.477z" fill="#263238"/><path d="m334.479 276.721c.005.835-.113 1.667-.351 2.468-.83 2.605-2.076 5.059-3.691 7.265-1.115 1.429-2.521 2.629-3.705 4.011-1.267 1.312-2.044 3.02-2.2 4.837-.046 3.056 3.285 3.934 5.829 4.286 2.758.363 5.562.102 8.205-.764 1.393-.42 2.634-1.233 3.575-2.342.94-1.109 1.54-2.466 1.728-3.908.107-.848 0-1.704.091-2.552.259-1.947.997-3.801 2.147-5.394.666-.921 1.234-1.91 1.696-2.949.711-1.91 0-3.995-.58-5.837-.497-1.596-1.062-3.407-1.62-3.231 0 .848 0 .924-.543 1.528-.764.764-.725 1.826-1.528 2.49.232-.705.391-1.432.474-2.169.038-.301-.036-.605-.206-.856-.276-.224-.6-.381-.948-.458-1.208-.358-2.449-.591-3.705-.696-1.195-.157-2.408-.118-3.591.115-.349.081-.662.277-.886.558-.197.312-.295.677-.283 1.046 0 .497.084 1.742.092 2.552z" fill="#455a64"/><path d="m331.575 284.766c1.1-.886 3.621-1.001 5.012-.902 1.409.064 2.778.485 3.98 1.223.177.118.391.169.602.144.212-.025.407-.125.552-.282.084-.089.148-.195.188-.312.039-.116.052-.239.039-.361s-.052-.24-.115-.345c-.063-.106-.148-.196-.25-.265-1.327-.9-2.881-1.409-4.484-1.467-3.408-.1-4.378.519-4.378.519s-1.52 1.055-1.146 2.048z" fill="#f5f5f5"/><path d="m329.102 287.975c1.382-.894 4.171-.887 5.554-.764 1.386.088 2.724.538 3.881 1.306.176.118.388.169.598.143.211-.025.405-.124.548-.28.086-.088.152-.194.192-.31.041-.116.056-.24.043-.363-.012-.122-.051-.24-.114-.346-.063-.105-.149-.196-.251-.265-1.35-.947-2.938-1.497-4.584-1.589-3.415-.107-4.271.619-4.271.619-.388.168-.733.422-1.009.742-.277.32-.478.698-.587 1.107z" fill="#f5f5f5"/><path d="m338.32 278.898c-1.442-.197-2.911-.018-4.263.52-.581.359-.94 1.321-.55 1.528 1.183-.532 2.48-.763 3.774-.673 1.278.075 2.534.37 3.713.871.298.115.649.283.955.436.098.05.205.08.314.087.11.007.22-.008.323-.044.104-.037.199-.094.28-.168s.146-.165.191-.265c.072-.173.078-.368.016-.545-.062-.178-.188-.327-.352-.417-1.355-.755-2.856-1.208-4.401-1.33z" fill="#f5f5f5"/><path d="m279.264 281.007c-.347.873-.347 1.846 0 2.72.336.817 4.386 3.354 10.009 3.247 4.181-.102 8.259-1.321 11.811-3.53 2.208-1.314 4.447-1.474 7.227-1.528 2.781-.053 6.494-1.238 7.167-2.506.672-1.268.076-3.537.076-3.537z" fill="#263238"/><path d="m302.72 264.581-.435-.115c-.248-.075-.508-.098-.764-.069-.276.067-.524.216-.711.428-.578.678-1.09 1.41-1.528 2.185-1.26 1.857-3.82 3.331-6.57 4.653-1.88.894-3.706 1.574-5.639 2.33-1.932.757-4.584 1.185-6.112 2.132-2.292 1.383-2.727 5.088-.298 6.677 2.109 1.375 7.732 3.018 13.752 1.612 3.293-.764 7.067-4.064 11.346-4.194 2.727-.084 7.892-.604 9.733-2.582.695-.879 0-3.82-.619-6.357-.641-2.766-.351-6.876-1.589-6.876l-.076 1.383c-.115.413-1.085.817-1.391 1.138l-1.1 1.162c-.451.537-1 .983-1.619 1.314-1.093.489-2.369.198-3.538-.107-.046 0 .589-2.124.657-2.331.069-.161.09-.338.061-.511-.058-.17-.175-.313-.328-.405-.965-.707-2.065-1.206-3.232-1.467z" fill="#455a64"/><path d="m295.324 270.303c.214-.364.515-.668.877-.886.362-.217.772-.341 1.194-.359 1.245-.168 3.377.84 4.683 2.025.123.111.217.25.274.406.057.155.075.323.052.487-.022.164-.085.321-.181.455-.097.135-.226.244-.374.317-.187.092-.397.124-.603.091-.205-.032-.395-.128-.543-.274-1.431-1.425-3.36-2.236-5.379-2.262z" fill="#f5f5f5"/><path d="m291.398 272.267c.287-.366.657-.658 1.08-.851s.886-.281 1.35-.257c0 0 3.224.245 5.126 2.2.118.108.208.242.262.391.054.15.072.31.051.468-.021.157-.08.307-.172.437-.091.13-.213.236-.355.309-.18.088-.383.118-.581.087-.198-.032-.382-.124-.526-.263-.783-.862-1.75-1.536-2.83-1.972-1.079-.437-2.243-.624-3.405-.549z" fill="#f5f5f5"/><path d="m287.082 273.993c.325-.336.718-.598 1.153-.768s.902-.244 1.368-.217c1.827.201 3.543.974 4.905 2.208.117.108.207.242.261.392.055.15.072.311.051.469-.021.159-.079.309-.171.44s-.213.237-.355.311c-.18.089-.385.119-.583.086-.199-.033-.382-.127-.525-.27-.741-.885-1.679-1.586-2.739-2.046-1.059-.461-2.211-.667-3.365-.605z" fill="#f5f5f5"/><path d="m326.993 76.7362c3.606.4126 7.869.6342 11.314 1.0849 4.439.5807 7.9 5.1723 8.985 12.2775 1.192 7.8234-3.82 30.2544-3.82 30.2544l1.597 26.45c-6.502 4.79-34.189 7.304-47.987-2.659 0 0 .321-45.0149 1.398-51.952 1.482-9.5118 3.82-15.4176 14.516-16.0975z" fill="#455a64"/><path d="m351.644 134.036c-1.168 1.956-2.345 3.912-3.552 5.845-.443.718-.894 1.429-1.36 2.131-.253.345-.548.655-.879.925-.58.397-1.787.145-2.49.168-3.454.117-6.897.372-10.33.764-.287-.009-.573.045-.837.159-.264.113-.5.283-.691.498-.141.296-.169.633-.079.948s.292.587.568.763c.563.338 1.201.527 1.857.55l2.979.352c.426.014.838.146 1.192.382 1.085.879-.985 1.933-1.604 2.361-1.245.864-2.573 1.601-3.965 2.2-6.212 2.613-6.968 4.508-5.822 6.662.993 1.872 5.287 8.679 16.197 2.819 4.393-2.361 11.078-9.817 14.126-13.423 4.386-5.203 11.804-16.808 11.804-16.808 4.217-5.791 4.76-8.167 4.859-10.574s-12.988-20.9183-17.434-27.42c-4.447-6.5016-6.563-14.409-17.878-15.4939 0 0-4.309 13.6603 2.827 22.4999l16.479 22.989s-4.362 8.022-5.967 10.703z" fill="#ffa8a7"/><path d="m363.601 102.155c-2.117-3.0564-4.325-6.204-6.456-9.3212-8.977-13.1026-8.221-15.5015-21.163-15.6849-1.146 1.7572-1.826 9.3208-.099 16.915 1.444 6.3791 6.876 10.8791 6.876 10.8791l6.478 8.779s3.966-.123 8.718-3.606c2.744-1.923 4.739-4.736 5.646-7.961z" fill="#37474f"/><path d="m335.524 42.3029c-.651-.9695-1.552-1.7444-2.608-2.2422-1.056-.4977-2.228-.6998-3.39-.5846l-.672 16.4031-1.1 6.0585.191 6.7461c.639-.0903 1.244-.3409 1.76-.7283.515-.3874.924-.8991 1.189-1.4873 1.008-1.9406 3.82-11.3225 3.82-11.3225 2.521-7.7087 1.986-11.1926.81-12.8428z" fill="#263238"/><path d="m328.09 55.9555c.284-.9969.83-1.8993 1.582-2.6128.939-1.0085 4.683-2.101 6.387 1.0772 1.703 3.1782-1.169 7.3726-3.385 8.6561-2.834 1.6502-4.5-.5959-4.5-.5959l.069 15.1043c-1.322 3.056-7.289 5.7758-10.841 5.348-2.827-.3591-5.432-2.5823-2.903-5.8217l-.207-4.309s-3.781.764-5.653.573c-3.11-.3208-5.18-2.6663-6.28-5.9668-1.773-5.3022-2.56-9.6111-1.811-20.246.825-11.651 14.294-12.4379 21.804-8.2206 7.511 4.2172 5.738 17.0142 5.738 17.0142z" fill="#ffa8a7"/><path d="m296.263 35.0601c-.344-2.5441.535-5.2716 3.201-6.1731.979-.4093 2.053-.534 3.099-.3596 1.046.1743 2.022.6406 2.815 1.3451.334-.8975.912-1.684 1.669-2.2712.756-.5871 1.662-.9515 2.614-1.0523.953-.1008 1.915.066 2.777.4817.863.4157 1.593 1.0639 2.108 1.8716.708-1.0758 1.802-1.8388 3.056-2.1316.773-.1727 1.573-.1886 2.352-.0469.78.1417 1.523.4382 2.186.872 1.085.8022 2.361 2.292 2.04 4.2249 2.147-.8633 4.385-.1451 5.982 1.7496.95 1.1602 1.488 2.6035 1.528 4.1027.055.7787-.057 1.5602-.329 2.292-.305.6952-.932 1.1536-1.115 1.9405-.267.6924-.404 1.4278-.405 2.1698.176 1.2835.458 2.567.627 3.82.18 1.248.285 2.5058.313 3.7665-.04.2965-.143.581-.303.8341-.159.2531-.371.4689-.622.6328-.713.6238-1.266 1.4099-1.612 2.292-.267.5501-.527 1.91-1.054 2.292-1.627 1.1384-1.811-2.5441-1.887-3.2546-.105-1.6308-.105-3.2665 0-4.8973-.821-.0106-1.63-.1928-2.376-.5349s-1.412-.8365-1.956-1.4515c-.564-.691-.935-1.5185-1.077-2.3989-.088-.5045-.129-1.016-.122-1.528-1.062 1.7572-3.53 2.4753-5.287 2.292-2.949-.2674-3.965-1.528-4.439-2.4525-.187.9112-.587 1.765-1.169 2.4907-.753.7079-1.661 1.231-2.651 1.528-.854.2279-1.754.2188-2.604-.0261-.849-.245-1.615-.7167-2.217-1.3644-1.199 1.719-4.24.955-4.913.4737-1.528-1.1078-2.024-2.4296-2.192-4.3166-.168-1.8871.596-4.0416 2.689-4.7827-.377-.7631-.623-1.5845-.726-2.4295z" fill="#263238"/><path d="m314.293 72.7788s6.83-1.7266 9.168-3.1324c1.383-.8097 2.488-2.0189 3.171-3.4685-.296 1.43-.875 2.7862-1.704 3.988-1.65 2.3455-10.559 4.4542-10.559 4.4542z" fill="#f28f8f"/><path d="m314.674 55.4511c.026.2894.137.5649.318.7921s.424.3962.701.486c.276.0898.573.0964.853.0189.28-.0774.531-.2354.722-.4544s.313-.4892.352-.7772c.038-.288-.009-.5809-.135-.8425-.127-.2615-.327-.4801-.577-.6285-.25-.1485-.538-.2202-.828-.2064-.398.0313-.769.2176-1.032.519s-.397.6938-.374 1.093z" fill="#263238"/><path d="m312.391 66.5062c.035.3728.179.727.413 1.0187.235.2918.55.5081.906.6222.357.1141.739.1209 1.1.0195.36-.1013.683-.3063.928-.5895.244-.2832.401-.6322.449-1.0034.048-.3713-.014-.7485-.179-1.0848-.164-.3363-.424-.6168-.746-.8068-.323-.19-.694-.2809-1.068-.2616-.514.0411-.992.2829-1.329.6732-.338.3903-.508.8977-.474 1.4125z" fill="#f28f8f"/><path d="m315.906 50.3629 3.148 1.528c.196-.4314.219-.9217.064-1.3695-.155-.4479-.476-.8191-.897-1.0371-.209-.0999-.436-.1563-.667-.1659-.231-.0097-.462.0277-.678.1099-.217.0821-.414.2073-.581.3679-.166.1607-.299.3534-.389.5667z" fill="#263238"/><path d="m302.213 51.6847 2.682-2.292c-.14-.1828-.316-.3351-.517-.4476-.2-.1124-.422-.1826-.651-.2062s-.46-.0002-.68.0689-.423.1823-.597.3328c-.358.3131-.582.7515-.626 1.2248-.044.4734.096.9456.389 1.3193z" fill="#263238"/><path d="m303.017 55.1532c.019.2826.12.5534.292.7785.172.225.407.3942.675.4862.268.0921.557.1029.831.0311s.52-.2229.709-.4345c.188-.2115.309-.4741.349-.7545.039-.2804-.005-.5663-.127-.8217-.123-.2553-.318-.4687-.562-.6134-.243-.1447-.524-.2142-.807-.1997-.381.0255-.738.2-.992.4858-.255.2858-.386.66-.368 1.0422z" fill="#263238"/><path d="m310.106 53.4572-.046 9.0381-4.783-1.3752z" fill="#f28f8f"/><g fill="#e0e0e0"><path d="m298.105 66.1013c.044-.0098.085-.0284.122-.0546.037-.0263.068-.0597.092-.0982.027-.0378.046-.0806.056-.126s.011-.0924.002-.1381c-.008-.0457-.026-.0892-.052-.1279-.026-.0386-.059-.0716-.098-.097l-4.156-2.7657c-.039-.0257-.082-.0436-.128-.0525-.045-.009-.092-.0089-.137.0004-.046.0092-.089.0273-.127.0533-.039.026-.072.0594-.097.0982-.027.0382-.046.0815-.055.1272-.01.0457-.01.0928-.001.1386.01.0457.028.0891.055.1275.026.0383.061.0709.1.0956l4.149 2.7657c.039.0286.084.0483.131.0575.048.0093.097.0079.144-.004z"/><path d="m297.663 67.8891c.064-.016.123-.0494.171-.0965.047-.0471.08-.1062.096-.1709.021-.0921.004-.1887-.046-.2687-.05-.0801-.129-.1373-.221-.1591l-4.859-1.1231c-.045-.0113-.092-.0136-.138-.0067-.047.0069-.091.0229-.131.0471-.039.0242-.074.056-.101.0937-.028.0376-.047.0804-.058.1257-.021.0921-.004.1887.046.2688s.129.1372.221.159l4.859 1.1307c.054.0077.108.0077.161 0z"/><path d="m293.148 71.1208h.046l4.683-1.7113c.088-.0325.16-.0986.199-.1838.04-.0853.044-.1827.011-.2708-.032-.0882-.098-.1598-.184-.1992-.085-.0394-.182-.0433-.27-.0109l-4.684 1.7113c-.044.0162-.084.0409-.118.0728-.035.0319-.062.0703-.081.113-.02.0427-.03.0889-.031.1357s.007.0934.024.1369c.032.0768.091.1397.165.1774.074.0378.159.048.24.0289z"/><path d="m253.526 107.77c.097.194.248.355.435.464.188.109.403.16.619.148s.424-.088.598-.217.306-.306.38-.51l3.484-8.5946c.057-.1378.085-.2856.083-.4345s-.034-.296-.094-.4323-.147-.2591-.255-.3611c-.109-.102-.237-.1811-.376-.2325-.14-.0514-.289-.074-.438-.0667-.148.0074-.294.0448-.428.1098s-.254.1563-.352.2686c-.098.1122-.172.2431-.218.3847l-3.491 8.5946c-.052.143-.074.294-.065.445s.05.299.118.434z"/><path d="m247.788 107.724c.111.225.296.406.523.513.228.106.485.133.729.074s.461-.199.615-.397c.155-.198.237-.443.234-.694l-.115-10.6961c-.023-.2769-.149-.5351-.353-.7232-.205-.1882-.473-.2926-.751-.2926s-.545.1044-.75.2926c-.204.1881-.331.4463-.354.7232l.107 10.6961c-.002.175.038.347.115.504z"/><path d="m238.063 101.773.068.129 5.264 7.64c.164.242.415.41.702.467.286.057.583 0 .826-.161.238-.167.402-.419.457-.704.056-.285-.001-.58-.159-.824l-5.264-7.64c-.153-.237-.391-.406-.666-.472-.274-.066-.564-.024-.808.117-.244.142-.425.371-.505.642-.079.271-.052.562.077.813z"/></g></svg>