<svg width="22" height="13" viewBox="0 0 22 13" fill="none" xmlns="http://www.w3.org/2000/svg">
<path d="M8.34178 12.782L6.41078 12.264L7.19778 9.32499C6.01975 8.89051 4.9249 8.25735 3.96078 7.45299L1.80778 9.60699L0.392781 8.19199L2.54678 6.03898C1.33086 4.58274 0.513869 2.83575 0.175781 0.968985L2.14378 0.609985C2.90278 4.81199 6.57878 7.99999 10.9998 7.99999C15.4198 7.99999 19.0968 4.81199 19.8558 0.609985L21.8238 0.967985C21.4861 2.835 20.6695 4.58235 19.4538 6.03898L21.6068 8.19199L20.1918 9.60699L18.0388 7.45299C17.0747 8.25735 15.9798 8.89051 14.8018 9.32499L15.5888 12.265L13.6578 12.782L12.8698 9.84199C11.6321 10.0541 10.3674 10.0541 9.12978 9.84199L8.34178 12.782Z" fill="#3D3D3D"/>
</svg>
